<?xml version="1.0" standalone="no"?>
<!DOCTYPE svg PUBLIC "-//W3C//DTD SVG 20010904//EN"
 "http://www.w3.org/TR/2001/REC-SVG-20010904/DTD/svg10.dtd">
<svg version="1.0" xmlns="http://www.w3.org/2000/svg"
 width="1000.000000pt" height="1000.000000pt" viewBox="0 0 1000.000000 1000.000000"
 preserveAspectRatio="xMidYMid meet">
<metadata>
Created by potrace 1.11, written by Peter Selinger 2001-2013
</metadata>
<g transform="translate(0.000000,1000.000000) scale(0.100000,-0.100000)"
fill="#000000" stroke="none">
<path d="M6730 8759 c-245 -93 -511 -195 -592 -225 l-148 -56 0 -1554 0 -1554
-990 0 -990 0 -2 1178 -3 1178 -595 -226 -595 -226 -3 -3118 c-2 -2967 -1
-3118 15 -3111 20 7 1111 411 1156 427 l27 10 0 1574 0 1574 990 0 990 0 0
-1209 0 -1208 600 221 600 221 0 3138 c0 1725 -3 3137 -7 3136 -5 0 -208 -77
-453 -170z"/>
</g>
</svg>
